<svg xmlns="http://www.w3.org/2000/svg" viewBox="0 0 15 15" shape-rendering="crispEdges">
  <g fill="#000000">
    <rect x="1" y="1" width="10" height="1"/>
    <rect x="1" y="2" width="10" height="1"/>
    <rect x="1" y="3" width="2" height="1"/>
    <rect x="9" y="3" width="2" height="1"/>
    <rect x="12" y="3" width="2" height="1"/>
    <rect x="1" y="4" width="2" height="1"/>
    <rect x="9" y="4" width="2" height="1"/>
    <rect x="12" y="4" width="2" height="1"/>
    <rect x="1" y="5" width="2" height="1"/>
    <rect x="9" y="5" width="2" height="1"/>
    <rect x="12" y="5" width="2" height="1"/>
    <rect x="1" y="6" width="2" height="1"/>
    <rect x="9" y="6" width="2" height="1"/>
    <rect x="12" y="6" width="2" height="1"/>
    <rect x="1" y="7" width="2" height="1"/>
    <rect x="9" y="7" width="2" height="1"/>
    <rect x="12" y="7" width="2" height="1"/>
    <rect x="1" y="8" width="2" height="1"/>
    <rect x="9" y="8" width="2" height="1"/>
    <rect x="12" y="8" width="2" height="1"/>
    <rect x="1" y="9" width="10" height="1"/>
    <rect x="12" y="9" width="2" height="1"/>
    <rect x="1" y="10" width="10" height="1"/>
    <rect x="12" y="10" width="2" height="1"/>
    <rect x="12" y="11" width="2" height="1"/>
    <rect x="3" y="12" width="11" height="1"/>
    <rect x="3" y="13" width="11" height="1"/>
  </g>
</svg>
