<svg xmlns="http://www.w3.org/2000/svg" viewBox="0 0 15 15" shape-rendering="crispEdges">
  <g fill="#000000">
    <rect x="1" y="1" width="2" height="1"/>
    <rect x="12" y="1" width="2" height="1"/>
    <rect x="1" y="2" width="3" height="1"/>
    <rect x="11" y="2" width="3" height="1"/>
    <rect x="2" y="3" width="3" height="1"/>
    <rect x="10" y="3" width="3" height="1"/>
    <rect x="3" y="4" width="3" height="1"/>
    <rect x="9" y="4" width="3" height="1"/>
    <rect x="4" y="5" width="3" height="1"/>
    <rect x="8" y="5" width="3" height="1"/>
    <rect x="5" y="6" width="5" height="1"/>
    <rect x="6" y="7" width="3" height="1"/>
    <rect x="5" y="8" width="5" height="1"/>
    <rect x="4" y="9" width="3" height="1"/>
    <rect x="8" y="9" width="3" height="1"/>
    <rect x="3" y="10" width="3" height="1"/>
    <rect x="9" y="10" width="3" height="1"/>
    <rect x="2" y="11" width="3" height="1"/>
    <rect x="10" y="11" width="3" height="1"/>
    <rect x="1" y="12" width="3" height="1"/>
    <rect x="11" y="12" width="3" height="1"/>
    <rect x="1" y="13" width="2" height="1"/>
    <rect x="12" y="13" width="2" height="1"/>
  </g>
</svg>
