<svg xmlns="http://www.w3.org/2000/svg" viewBox="0 0 15 15" shape-rendering="crispEdges">
  <g fill="#000000">
    <rect x="7" y="0" width="1" height="1"/>
    <rect x="1" y="1" width="1" height="1"/>
    <rect x="7" y="1" width="1" height="1"/>
    <rect x="13" y="1" width="1" height="1"/>
    <rect x="2" y="2" width="1" height="1"/>
    <rect x="12" y="2" width="1" height="1"/>
    <rect x="6" y="3" width="3" height="1"/>
    <rect x="4" y="4" width="7" height="1"/>
    <rect x="4" y="5" width="7" height="1"/>
    <rect x="3" y="6" width="9" height="1"/>
    <rect x="0" y="7" width="2" height="1"/>
    <rect x="3" y="7" width="9" height="1"/>
    <rect x="13" y="7" width="2" height="1"/>
    <rect x="3" y="8" width="9" height="1"/>
    <rect x="4" y="9" width="7" height="1"/>
    <rect x="4" y="10" width="7" height="1"/>
    <rect x="6" y="11" width="3" height="1"/>
    <rect x="2" y="12" width="1" height="1"/>
    <rect x="12" y="12" width="1" height="1"/>
    <rect x="1" y="13" width="1" height="1"/>
    <rect x="7" y="13" width="1" height="1"/>
    <rect x="13" y="13" width="1" height="1"/>
    <rect x="7" y="14" width="1" height="1"/>
  </g>
</svg>
