<svg xmlns="http://www.w3.org/2000/svg" viewBox="0 0 15 15" shape-rendering="crispEdges">
  <g fill="#000000">
    <rect x="2" y="0" width="11" height="1"/>
    <rect x="1" y="1" width="13" height="1"/>
    <rect x="0" y="2" width="15" height="1"/>
    <rect x="0" y="3" width="15" height="1"/>
    <rect x="0" y="4" width="5" height="1"/>
    <rect x="11" y="4" width="4" height="1"/>
    <rect x="1" y="5" width="3" height="1"/>
    <rect x="11" y="5" width="4" height="1"/>
    <rect x="7" y="6" width="8" height="1"/>
    <rect x="6" y="7" width="8" height="1"/>
    <rect x="5" y="8" width="8" height="1"/>
    <rect x="5" y="9" width="5" height="1"/>
    <rect x="5" y="10" width="5" height="1"/>
    <rect x="5" y="12" width="5" height="1"/>
    <rect x="5" y="13" width="5" height="1"/>
    <rect x="6" y="14" width="3" height="1"/>
  </g>
</svg>
