<svg xmlns="http://www.w3.org/2000/svg" viewBox="0 0 15 15" shape-rendering="crispEdges">
  <g fill="#000000">
    <rect x="11" y="0" width="1" height="1"/>
    <rect x="1" y="1" width="4" height="1"/>
    <rect x="11" y="1" width="2" height="1"/>
    <rect x="1" y="2" width="4" height="1"/>
    <rect x="8" y="2" width="6" height="1"/>
    <rect x="1" y="3" width="2" height="1"/>
    <rect x="6" y="3" width="9" height="1"/>
    <rect x="1" y="4" width="2" height="1"/>
    <rect x="5" y="4" width="9" height="1"/>
    <rect x="1" y="5" width="2" height="1"/>
    <rect x="5" y="5" width="4" height="1"/>
    <rect x="11" y="5" width="2" height="1"/>
    <rect x="1" y="6" width="2" height="1"/>
    <rect x="4" y="6" width="3" height="1"/>
    <rect x="11" y="6" width="1" height="1"/>
    <rect x="1" y="7" width="2" height="1"/>
    <rect x="4" y="7" width="2" height="1"/>
    <rect x="1" y="8" width="2" height="1"/>
    <rect x="4" y="8" width="2" height="1"/>
    <rect x="12" y="8" width="2" height="1"/>
    <rect x="1" y="9" width="2" height="1"/>
    <rect x="4" y="9" width="1" height="1"/>
    <rect x="12" y="9" width="2" height="1"/>
    <rect x="1" y="10" width="2" height="1"/>
    <rect x="4" y="10" width="1" height="1"/>
    <rect x="12" y="10" width="2" height="1"/>
    <rect x="1" y="11" width="2" height="1"/>
    <rect x="12" y="11" width="2" height="1"/>
    <rect x="1" y="12" width="13" height="1"/>
    <rect x="1" y="13" width="13" height="1"/>
  </g>
</svg>
